<svg width="115" height="115" viewBox="0 0 115 115" fill="none" xmlns="http://www.w3.org/2000/svg">
<path d="M97.2707 24.4375L103.979 17.7292C105.896 15.8125 105.896 12.9375 103.979 11.0208C102.062 9.10419 99.1874 9.10419 97.2707 11.0208L46.9582 61.3333C43.1249 58.9375 38.3332 57.5 33.5415 57.5C20.1249 57.5 9.58325 68.0417 9.58325 81.4584C9.58325 94.875 20.1249 105.417 33.5415 105.417C46.9582 105.417 57.4999 94.875 57.4999 81.4584C57.4999 76.6667 56.0624 71.875 53.6665 68.0417L77.1457 44.5625L83.854 51.2708C85.7707 53.1875 88.6457 53.1875 90.5624 51.2708C92.479 49.3542 92.479 46.4792 90.5624 44.5625L83.854 37.8542L90.5624 31.1458L97.2707 37.8542C99.1874 39.7708 102.062 39.7708 103.979 37.8542C105.896 35.9375 105.896 33.0625 103.979 31.1458L97.2707 24.4375ZM33.5415 95.8334C25.3957 95.8334 19.1665 89.6042 19.1665 81.4584C19.1665 73.3125 25.3957 67.0833 33.5415 67.0833C41.6874 67.0833 47.9165 73.3125 47.9165 81.4584C47.9165 89.6042 41.6874 95.8334 33.5415 95.8334Z" fill="url(#paint0_linear_175_584)"/>
<defs>
<linearGradient id="paint0_linear_175_584" x1="57.5" y1="9.58334" x2="57.5" y2="105.417" gradientUnits="userSpaceOnUse">
<stop stop-color="#A6F3A6"/>
<stop offset="1" stop-color="#666666"/>
</linearGradient>
</defs>
</svg>
