<svg width="115" height="115" viewBox="0 0 115 115" fill="none" xmlns="http://www.w3.org/2000/svg">
<path d="M97.2707 24.4374L103.979 17.7291C105.896 15.8124 105.896 12.9374 103.979 11.0207C102.062 9.1041 99.1874 9.1041 97.2707 11.0207L46.9582 61.3332C43.1249 58.9374 38.3332 57.4999 33.5415 57.4999C20.1249 57.4999 9.58325 68.0416 9.58325 81.4583C9.58325 94.8749 20.1249 105.417 33.5415 105.417C46.9582 105.417 57.4999 94.8749 57.4999 81.4583C57.4999 76.6666 56.0624 71.8749 53.6665 68.0416L77.1457 44.5624L83.854 51.2707C85.7707 53.1874 88.6457 53.1874 90.5624 51.2707C92.479 49.3541 92.479 46.4791 90.5624 44.5624L83.854 37.8541L90.5624 31.1457L97.2707 37.8541C99.1874 39.7707 102.062 39.7707 103.979 37.8541C105.896 35.9374 105.896 33.0624 103.979 31.1457L97.2707 24.4374ZM33.5415 95.8333C25.3957 95.8333 19.1665 89.6041 19.1665 81.4583C19.1665 73.3124 25.3957 67.0832 33.5415 67.0832C41.6874 67.0832 47.9165 73.3124 47.9165 81.4583C47.9165 89.6041 41.6874 95.8333 33.5415 95.8333Z" fill="white"/>
</svg>
