<svg width="115" height="115" viewBox="0 0 115 115" fill="none" xmlns="http://www.w3.org/2000/svg">
<path d="M97.2708 24.4375L103.979 17.7292C105.896 15.8125 105.896 12.9375 103.979 11.0208C102.062 9.10418 99.1875 9.10418 97.2708 11.0208L46.9583 61.3333C43.125 58.9375 38.3333 57.5 33.5416 57.5C20.125 57.5 9.58331 68.0417 9.58331 81.4584C9.58331 94.875 20.125 105.417 33.5416 105.417C46.9583 105.417 57.5 94.875 57.5 81.4584C57.5 76.6667 56.0625 71.875 53.6666 68.0417L77.1458 44.5625L83.8541 51.2708C85.7708 53.1875 88.6458 53.1875 90.5625 51.2708C92.4791 49.3542 92.4791 46.4792 90.5625 44.5625L83.8541 37.8542L90.5625 31.1458L97.2708 37.8542C99.1875 39.7708 102.062 39.7708 103.979 37.8542C105.896 35.9375 105.896 33.0625 103.979 31.1458L97.2708 24.4375ZM33.5416 95.8334C25.3958 95.8334 19.1666 89.6042 19.1666 81.4584C19.1666 73.3125 25.3958 67.0833 33.5416 67.0833C41.6875 67.0833 47.9166 73.3125 47.9166 81.4584C47.9166 89.6042 41.6875 95.8334 33.5416 95.8334Z" fill="#FFD900"/>
</svg>
