<svg width="111" height="111" viewBox="0 0 111 111" fill="none" xmlns="http://www.w3.org/2000/svg">
<path d="M34.5539 47.5596L24.2242 57.8893C20.3663 61.7472 18.1478 66.9964 18.1883 72.5131C18.2289 78.0299 20.3989 83.3111 24.4398 87.2273C28.3557 91.2683 33.638 93.4382 39.1539 93.4787C44.7956 93.5202 49.9206 91.4267 53.7787 87.5687L64.1084 77.239M77.3027 64.2971L87.6324 53.9673C91.4903 50.1095 93.7088 44.8603 93.6682 39.3435C93.6277 33.8267 91.4577 28.5455 87.4168 24.6294C83.5018 20.7144 78.2204 18.5443 72.7036 18.5037C67.1868 18.4632 61.9369 20.5558 58.0788 24.4138L47.7491 34.7435M40.2639 71.3165L71.2531 40.3273M24.6802 24.1291L19.5636 19.0124M42.4472 15.1161L43.2843 6.68233M7.9635 42.0015L16.7078 41.1337M87.6017 85.5889L92.7184 90.7056M69.8347 94.6019L68.9977 103.036M104.318 67.7165L95.5741 68.5844" stroke="url(#paint0_linear_144_61)" stroke-width="3" stroke-linecap="round" stroke-linejoin="round"/>
<defs>
<linearGradient id="paint0_linear_144_61" x1="56.141" y1="6.68233" x2="56.141" y2="103.036" gradientUnits="userSpaceOnUse">
<stop stop-color="#A6F3A6"/>
<stop offset="1" stop-color="#666666"/>
</linearGradient>
</defs>
</svg>
