<svg width="150" height="150" viewBox="0 0 150 150" fill="none" xmlns="http://www.w3.org/2000/svg">
<path fill-rule="evenodd" clip-rule="evenodd" d="M85.4769 26.9767C82.805 16.0077 67.195 16.0077 64.5231 26.9767C64.1244 28.6249 63.3419 30.1557 62.2394 31.4445C61.1371 32.7332 59.7461 33.7435 58.1796 34.3932C56.6131 35.0427 54.9154 35.3134 53.2245 35.1829C51.5336 35.0524 49.8975 34.5246 48.4492 33.6424C38.802 27.7642 27.7625 38.8034 33.6409 48.4504C37.4379 54.6802 34.0698 62.8087 26.982 64.5312C16.006 67.1962 16.006 82.8125 26.982 85.4706C28.6308 85.87 30.1619 86.6531 31.4507 87.7562C32.7394 88.8594 33.7494 90.2512 34.3984 91.8187C35.0475 93.3862 35.3171 95.0844 35.1855 96.7756C35.0539 98.4669 34.5246 100.103 33.6409 101.551C27.7625 111.198 38.802 122.237 48.4492 116.359C49.8972 115.476 51.5335 114.946 53.2248 114.815C54.9161 114.683 56.6146 114.952 58.182 115.602C59.7494 116.251 61.1412 117.261 62.2444 118.549C63.3475 119.838 64.1306 121.369 64.53 123.018C67.195 133.994 82.8119 133.994 85.47 123.018C85.8706 121.37 86.6544 119.84 87.7581 118.552C88.8612 117.264 90.2531 116.255 91.82 115.606C93.3869 114.957 95.0844 114.687 96.7756 114.818C98.4662 114.949 100.102 115.477 101.551 116.359C111.198 122.237 122.237 111.198 116.359 101.551C115.477 100.103 114.949 98.4669 114.818 96.7762C114.687 95.085 114.957 93.3875 115.606 91.8206C116.255 90.2537 117.264 88.8619 118.552 87.7587C119.84 86.655 121.37 85.8712 123.018 85.4706C133.994 82.8056 133.994 67.1887 123.018 64.5312C121.369 64.1319 119.838 63.3487 118.549 62.2455C117.261 61.1424 116.251 59.7504 115.601 58.1831C114.952 56.6158 114.683 54.9173 114.814 53.226C114.946 51.5347 115.476 49.8985 116.359 48.4504C122.237 38.8034 111.198 27.7642 101.551 33.6424C100.102 34.5261 98.4662 35.0554 96.775 35.187C95.0837 35.3186 93.3856 35.049 91.8181 34.4C90.2506 33.751 88.8587 32.741 87.7556 31.4522C86.6525 30.1635 85.8694 28.6324 85.47 26.9837L85.4769 26.9767Z" stroke="#FFD900" stroke-width="2"/>
<path d="M87.5 75C87.5 81.9037 81.9037 87.5 75 87.5C68.0963 87.5 62.5 81.9037 62.5 75C62.5 68.0963 68.0963 62.5 75 62.5C81.9037 62.5 87.5 68.0963 87.5 75Z" stroke="#FFD900" stroke-width="2"/>
</svg>
