<svg width="24" height="24" viewBox="0 0 24 24" fill="none" xmlns="http://www.w3.org/2000/svg">
<path fill-rule="evenodd" clip-rule="evenodd" d="M11.4545 2.2256C11.7558 1.9248 12.2442 1.9248 12.5455 2.2256L13.0598 2.73911L13.0598 2.73911L15.6312 5.30668C15.9325 5.60749 15.9325 6.0952 15.6312 6.39601C15.3299 6.69682 14.8415 6.69682 14.5402 6.39601L12.7714 4.62986V12.0135C12.7714 12.4389 12.426 12.7838 12 12.7838C11.574 12.7838 11.2286 12.4389 11.2286 12.0135V4.62986L9.45977 6.39601C9.15851 6.69682 8.67007 6.69682 8.3688 6.39601C8.06754 6.0952 8.06754 5.60749 8.3688 5.30668L10.9402 2.73911L10.9402 2.73911L11.4545 2.2256ZM4.8 9.7027C4.65798 9.7027 4.54286 9.81765 4.54286 9.95945V19.2027C4.54286 19.3445 4.65798 19.4595 4.8 19.4595H19.2C19.342 19.4595 19.4571 19.3445 19.4571 19.2027V9.95945C19.4571 9.81765 19.342 9.7027 19.2 9.7027H16.1143C15.6882 9.7027 15.3429 9.35783 15.3429 8.93242C15.3429 8.50702 15.6882 8.16215 16.1143 8.16215H19.2C20.1941 8.16215 21 8.96683 21 9.95945V19.2027C21 20.1953 20.1941 21 19.2 21H4.8C3.80589 21 3 20.1953 3 19.2027V9.95945C3 8.96683 3.80589 8.16215 4.8 8.16215H7.88571C8.31176 8.16215 8.65714 8.50702 8.65714 8.93242C8.65714 9.35783 8.31176 9.7027 7.88571 9.7027H4.8Z" fill="white" fill-opacity="0.8"/>
</svg>
