<svg width="24" height="23" viewBox="0 0 24 23" fill="none" xmlns="http://www.w3.org/2000/svg">
<path d="M21.8333 6.61841L14.8334 0.83932C14.1917 0.29881 13.3609 0 12.5 0C11.6392 0 10.8084 0.29881 10.1667 0.83932L3.16677 6.61841C2.7962 6.93051 2.50049 7.31338 2.29933 7.74153C2.09817 8.16968 1.99617 8.63327 2.00011 9.10142V18.7039C2.00011 19.5782 2.36887 20.4165 3.02523 21.0346C3.6816 21.6527 4.57184 22 5.50008 22H19.5C20.4282 22 21.3185 21.6527 21.9748 21.0346C22.6312 20.4165 23 19.5782 23 18.7039V9.09043C23.0023 8.62413 22.8994 8.16266 22.6984 7.73652C22.4972 7.31039 22.2024 6.92928 21.8333 6.61841ZM14.8334 19.8026H10.1667V14.3092C10.1667 14.0178 10.2897 13.7383 10.5084 13.5323C10.7272 13.3263 11.024 13.2105 11.3334 13.2105H13.6667C13.9761 13.2105 14.2729 13.3263 14.4916 13.5323C14.7104 13.7383 14.8334 14.0178 14.8334 14.3092V19.8026ZM20.6666 18.7039C20.6666 18.9953 20.5437 19.2748 20.3249 19.4808C20.1062 19.6869 19.8094 19.8026 19.5 19.8026H17.1667V14.3092C17.1667 13.4351 16.7979 12.5967 16.1415 11.9785C15.4852 11.3604 14.5949 11.0131 13.6667 11.0131H11.3334C10.4051 11.0131 9.51489 11.3604 8.85852 11.9785C8.20214 12.5967 7.8334 13.4351 7.8334 14.3092V19.8026H5.50008C5.19067 19.8026 4.89392 19.6869 4.67514 19.4808C4.45635 19.2748 4.33343 18.9953 4.33343 18.7039V9.09043C4.33364 8.93442 4.36913 8.78028 4.43752 8.63821C4.50592 8.49613 4.60565 8.3694 4.7301 8.26644L11.73 2.49834C11.943 2.32219 12.2167 2.22505 12.5 2.22505C12.7834 2.22505 13.0571 2.32219 13.27 2.49834L20.27 8.26644C20.3945 8.3694 20.4942 8.49613 20.5626 8.63821C20.6309 8.78028 20.6664 8.93442 20.6666 9.09043V18.7039Z" fill="white" fill-opacity="0.6"/>
</svg>
