<svg width="20" height="20" viewBox="0 0 20 20" fill="none" xmlns="http://www.w3.org/2000/svg">
<path d="M18.125 8.45833H10.875V1.20833C10.875 0.887859 10.7476 0.58052 10.5211 0.353909C10.2945 0.12731 9.98712 0 9.66667 0C9.34622 0 9.03882 0.12731 8.81225 0.353909C8.58569 0.58052 8.45833 0.887859 8.45833 1.20833V8.45833H1.20833C0.887859 8.45833 0.58052 8.58569 0.353909 8.81225C0.12731 9.03882 0 9.34622 0 9.66667C0 9.98712 0.12731 10.2945 0.353909 10.5211C0.58052 10.7476 0.887859 10.875 1.20833 10.875H8.45833V18.125C8.45833 18.4454 8.58569 18.7528 8.81225 18.9794C9.03882 19.206 9.34622 19.3333 9.66667 19.3333C9.98712 19.3333 10.2945 19.206 10.5211 18.9794C10.7476 18.7528 10.875 18.4454 10.875 18.125V10.875H18.125C18.4454 10.875 18.7528 10.7476 18.9794 10.5211C19.206 10.2945 19.3333 9.98712 19.3333 9.66667C19.3333 9.34622 19.206 9.03882 18.9794 8.81225C18.7528 8.58569 18.4454 8.45833 18.125 8.45833Z" fill="#FFFFFF"/>
</svg>
