<svg width="24" height="23" viewBox="0 0 24 23" fill="none" xmlns="http://www.w3.org/2000/svg">
<path d="M15.372 11.822C16.1316 11.0402 16.5595 10.0151 16.572 8.947C16.572 7.7941 16.0942 6.68842 15.2435 5.87321C14.3928 5.05799 13.239 4.6 12.036 4.6C10.833 4.6 9.6792 5.05799 8.82857 5.87321C7.9779 6.68842 7.5 7.7941 7.5 8.947C7.51253 10.0151 7.94042 11.0402 8.7 11.822C7.64238 12.3267 6.73226 13.0754 6.0515 14.0008C5.37073 14.9262 4.94068 15.9993 4.8 17.1235C4.765 17.4285 4.85784 17.7344 5.05813 17.9737C5.25842 18.2131 5.54974 18.3664 5.868 18.4C6.18626 18.4336 6.50539 18.3446 6.75518 18.1526C7.00499 17.9607 7.165 17.6815 7.2 17.3765C7.3432 16.2623 7.90662 15.2368 8.78411 14.4931C9.66156 13.7494 10.7926 13.3389 11.964 13.3389C13.1354 13.3389 14.2664 13.7494 15.1439 14.4931C16.0214 15.2368 16.5848 16.2623 16.728 17.3765C16.7614 17.6714 16.9123 17.9425 17.1493 18.1332C17.3864 18.324 17.6911 18.4195 18 18.4H18.132C18.4465 18.3653 18.734 18.2129 18.9319 17.976C19.1297 17.739 19.2217 17.4368 19.188 17.135C19.0578 16.0167 18.6413 14.9465 17.9755 14.0196C17.3098 13.0929 16.4155 12.3379 15.372 11.822ZM12 10.994C11.5775 10.994 11.1646 10.8739 10.8133 10.649C10.4621 10.4241 10.1882 10.1044 10.0266 9.73038C9.86496 9.35628 9.8226 8.94473 9.90504 8.54765C9.98748 8.15057 10.1909 7.78583 10.4897 7.49955C10.7884 7.21327 11.169 7.01831 11.5832 6.93933C11.9976 6.86035 12.4271 6.90089 12.8174 7.05581C13.2077 7.21075 13.5413 7.47313 13.776 7.80975C14.0107 8.14637 14.136 8.54214 14.136 8.947C14.136 9.48991 13.911 10.0105 13.5103 10.3945C13.1098 10.7784 12.5665 10.994 12 10.994ZM20.4 0H3.6C2.64522 0 1.72955 0.363481 1.05442 1.01048C0.379284 1.65748 0 2.535 0 3.45V19.55C0 20.4649 0.379284 21.3425 1.05442 21.9895C1.72955 22.6365 2.64522 23 3.6 23H20.4C21.3547 23 22.2704 22.6365 22.9456 21.9895C23.6207 21.3425 24 20.4649 24 19.55V3.45C24 2.535 23.6207 1.65748 22.9456 1.01048C22.2704 0.363481 21.3547 0 20.4 0ZM21.6 19.55C21.6 19.855 21.4735 20.1475 21.2485 20.3632C21.0235 20.5788 20.7182 20.7 20.4 20.7H3.6C3.28174 20.7 2.97652 20.5788 2.75147 20.3632C2.52643 20.1475 2.4 19.855 2.4 19.55V3.45C2.4 3.145 2.52643 2.85249 2.75147 2.63682C2.97652 2.42116 3.28174 2.3 3.6 2.3H20.4C20.7182 2.3 21.0235 2.42116 21.2485 2.63682C21.4735 2.85249 21.6 3.145 21.6 3.45V19.55Z" fill="white"/>
</svg>
